<?xml version="1.0" encoding="utf-8"?>
<!-- Generator: Adobe Illustrator 22.0.0, SVG Export Plug-In . SVG Version: 6.00 Build 0)  -->
<svg version="1.1" id="图层_1" xmlns="http://www.w3.org/2000/svg" xmlns:xlink="http://www.w3.org/1999/xlink" x="0px" y="0px"
	 viewBox="0 0 800 800" style="enable-background:new 0 0 800 800;" xml:space="preserve">
<style type="text/css">
	.st0{fill:#4b9cdb;}
</style>
<g>
	<g>
		<g>
			<path class="st0" d="M476,149.9c-0.3,0.2-0.5,0.5-0.8,0.8l-56.9,56.9c-7.8,7.8-20.5,7.8-28.3,0l-56.9-56.9
				c-0.3-0.3-0.5-0.5-0.8-0.8c-36.6-35.8-95.5-35.5-131.8,0.7L149.4,202c-36.3,36.3-36.5,95.2-0.8,131.8c0.2,0.3,0.5,0.5,0.8,0.8
				l56.9,56.9c7.8,7.8,7.8,20.5,0,28.3l-56.9,56.9c-0.3,0.3-0.5,0.5-0.8,0.8c-35.8,36.6-35.5,95.5,0.7,131.8l51.3,51.3
				c36.3,36.3,95.2,36.5,131.8,0.8c0.3-0.2,0.5-0.5,0.8-0.8l56.9-56.9c7.8-7.8,20.5-7.8,28.3,0l56.9,56.9c0.3,0.3,0.5,0.5,0.8,0.7
				c36.6,35.8,95.5,35.5,131.8-0.8l51.3-51.3c36.3-36.3,36.5-95.2,0.7-131.8c-0.2-0.3-0.5-0.5-0.7-0.8l-56.9-56.9
				c-7.8-7.8-7.8-20.5,0-28.3l56.9-56.9c0.3-0.3,0.5-0.5,0.8-0.8c35.8-36.6,35.5-95.5-0.8-131.8l-51.3-51.3
				C571.5,114.4,512.6,114.1,476,149.9z M630.8,230.2c20.7,20.7,21,54.2,0.7,75.2c-0.2,0.3-0.5,0.5-0.7,0.8L467.9,469.2
				c-7.8,7.8-7.8,20.5,0,28.3l31.8,31.8c7.8,7.8,20.5,7.8,28.3,0l0,0c7.8-7.8,7.8-20.5,0-28.3l-3.6-3.6c-7.8-7.8-7.8-20.5,0-28.3
				l21.2-21.2c7.8-7.8,20.5-7.8,28.3,0l56.9,56.9c0.3,0.3,0.5,0.5,0.7,0.8c20.2,21,19.9,54.5-0.7,75.2l-51.3,51.3
				c-20.7,20.7-54.2,21-75.2,0.7c-0.3-0.2-0.5-0.5-0.8-0.7L340.6,469.2c-7.8-7.8-20.5-7.8-28.3,0L280.5,501
				c-7.8,7.8-7.8,20.5,0,28.3h0c7.8,7.8,20.5,7.8,28.3,0l3.6-3.6c7.8-7.8,20.5-7.8,28.3,0l21.2,21.2c7.8,7.8,7.8,20.5,0,28.3
				l-56.9,56.9c-0.3,0.3-0.5,0.5-0.8,0.7c-21,20.2-54.5,19.9-75.2-0.7l-51.3-51.3c-20.7-20.7-20.9-54.2-0.7-75.2
				c0.2-0.3,0.5-0.5,0.7-0.8l162.9-162.9c7.8-7.8,7.8-20.5,0-28.3l-31.8-31.8c-7.8-7.8-20.5-7.8-28.3,0h0c-7.8,7.8-7.8,20.5,0,28.3
				l3.6,3.6c7.8,7.8,7.8,20.5,0,28.3l-21.2,21.2c-7.8,7.8-20.5,7.8-28.3,0l-56.9-56.9c-0.3-0.3-0.5-0.5-0.7-0.8
				c-20.2-21-19.9-54.5,0.7-75.2l51.3-51.3c20.7-20.7,54.2-20.9,75.2-0.7c0.3,0.2,0.5,0.5,0.8,0.7l162.9,162.9
				c7.8,7.8,20.5,7.8,28.3,0L528,310c7.8-7.8,7.8-20.5,0-28.3v0c-7.8-7.8-20.5-7.8-28.3,0l-3.6,3.6c-7.8,7.8-20.5,7.8-28.3,0
				l-21.2-21.2c-7.8-7.8-7.8-20.5,0-28.3l56.9-56.9c0.3-0.3,0.5-0.5,0.8-0.7c21-20.2,54.5-19.9,75.2,0.7L630.8,230.2z"/>
		</g>
	</g>
</g>
</svg>
